<svg xmlns="http://www.w3.org/2000/svg" viewBox="0 0 1120 560" role="img" aria-labelledby="title desc">
  <title id="title">Starter-F103 Sensor Lab wiring diagram</title>
  <desc id="desc">ST-LINK connects to STM32F103 Blue Pill over SWD. USB-UART connects to USART1. BMP280 connects to I2C1 PB6 and PB7. Power and ground are shared.</desc>
  <defs>
    <filter id="softGlow" x="-20%" y="-20%" width="140%" height="140%">
      <feGaussianBlur stdDeviation="5" result="blur"/>
      <feMerge>
        <feMergeNode in="blur"/>
        <feMergeNode in="SourceGraphic"/>
      </feMerge>
    </filter>
    <linearGradient id="boardFill" x1="0" y1="0" x2="1" y2="1">
      <stop offset="0" stop-color="#20352f"/>
      <stop offset="1" stop-color="#111a16"/>
    </linearGradient>
  </defs>
  <rect width="1120" height="560" rx="24" fill="#11140f"/>
  <g opacity="0.28">
    <path d="M40 80H1080M40 160H1080M40 240H1080M40 320H1080M40 400H1080M40 480H1080" stroke="#f4f1e8" stroke-width="1"/>
    <path d="M120 40V520M240 40V520M360 40V520M480 40V520M600 40V520M720 40V520M840 40V520M960 40V520" stroke="#f4f1e8" stroke-width="1"/>
  </g>

  <g filter="url(#softGlow)">
    <path d="M318 176H178" stroke="#54d7ff" stroke-width="6" stroke-linecap="round"/>
    <path d="M318 216H178" stroke="#54d7ff" stroke-width="6" stroke-linecap="round" stroke-dasharray="12 12"/>
    <path d="M318 318H178" stroke="#80ff72" stroke-width="6" stroke-linecap="round"/>
    <path d="M318 358H178" stroke="#80ff72" stroke-width="6" stroke-linecap="round" stroke-dasharray="12 12"/>
    <path d="M798 238H936" stroke="#ffb84d" stroke-width="6" stroke-linecap="round"/>
    <path d="M798 278H936" stroke="#ffb84d" stroke-width="6" stroke-linecap="round" stroke-dasharray="12 12"/>
    <path d="M410 430V466H682" stroke="#8a8f89" stroke-width="5" stroke-linecap="round" stroke-linejoin="round"/>
    <path d="M450 430V494H682" stroke="#ff6b64" stroke-width="5" stroke-linecap="round" stroke-linejoin="round"/>
  </g>

  <g transform="translate(318 100)">
    <rect width="480" height="340" rx="20" fill="url(#boardFill)" stroke="#80ff72" stroke-width="2"/>
    <rect x="32" y="32" width="416" height="276" rx="14" fill="#151b16" stroke="#f4f1e8" stroke-opacity="0.16"/>
    <rect x="190" y="108" width="100" height="96" rx="12" fill="#25352e" stroke="#54d7ff" stroke-opacity="0.55"/>
    <text x="240" y="146" text-anchor="middle" fill="#f4f1e8" font-family="Segoe UI, Arial" font-size="18" font-weight="700">STM32</text>
    <text x="240" y="172" text-anchor="middle" fill="#b8beb8" font-family="Segoe UI, Arial" font-size="14">F103C8T6</text>
    <circle cx="52" cy="76" r="6" fill="#54d7ff"/>
    <circle cx="52" cy="116" r="6" fill="#54d7ff"/>
    <circle cx="52" cy="218" r="6" fill="#80ff72"/>
    <circle cx="52" cy="258" r="6" fill="#80ff72"/>
    <circle cx="428" cy="138" r="6" fill="#ffb84d"/>
    <circle cx="428" cy="178" r="6" fill="#ffb84d"/>
    <circle cx="92" cy="330" r="6" fill="#8a8f89"/>
    <circle cx="132" cy="330" r="6" fill="#ff6b64"/>
    <text x="72" y="81" fill="#54d7ff" font-family="Cascadia Code, Consolas, monospace" font-size="13">SWDIO</text>
    <text x="72" y="121" fill="#54d7ff" font-family="Cascadia Code, Consolas, monospace" font-size="13">SWCLK</text>
    <text x="72" y="223" fill="#80ff72" font-family="Cascadia Code, Consolas, monospace" font-size="13">PA9 TX</text>
    <text x="72" y="263" fill="#80ff72" font-family="Cascadia Code, Consolas, monospace" font-size="13">PA10 RX</text>
    <text x="310" y="143" fill="#ffb84d" font-family="Cascadia Code, Consolas, monospace" font-size="13">PB6 SCL</text>
    <text x="310" y="183" fill="#ffb84d" font-family="Cascadia Code, Consolas, monospace" font-size="13">PB7 SDA</text>
    <text x="80" y="314" fill="#b8beb8" font-family="Cascadia Code, Consolas, monospace" font-size="12">GND</text>
    <text x="122" y="314" fill="#ff6b64" font-family="Cascadia Code, Consolas, monospace" font-size="12">3V3</text>
    <text x="240" y="54" text-anchor="middle" fill="#f4f1e8" font-family="Segoe UI, Arial" font-size="24" font-weight="800">Blue Pill</text>
    <text x="240" y="82" text-anchor="middle" fill="#b8beb8" font-family="Segoe UI, Arial" font-size="15">STM32F103C8T6 target board</text>
  </g>

  <g transform="translate(48 112)">
    <rect width="130" height="136" rx="14" fill="#171c18" stroke="#54d7ff" stroke-opacity="0.65"/>
    <text x="65" y="48" text-anchor="middle" fill="#f4f1e8" font-family="Segoe UI, Arial" font-size="20" font-weight="800">ST-LINK</text>
    <text x="65" y="78" text-anchor="middle" fill="#54d7ff" font-family="Cascadia Code, Consolas, monospace" font-size="13">SWD</text>
    <text x="65" y="106" text-anchor="middle" fill="#b8beb8" font-family="Segoe UI, Arial" font-size="13">debug / flash</text>
  </g>

  <g transform="translate(48 282)">
    <rect width="130" height="120" rx="14" fill="#171c18" stroke="#80ff72" stroke-opacity="0.65"/>
    <text x="65" y="42" text-anchor="middle" fill="#f4f1e8" font-family="Segoe UI, Arial" font-size="19" font-weight="800">USB-UART</text>
    <text x="65" y="72" text-anchor="middle" fill="#80ff72" font-family="Cascadia Code, Consolas, monospace" font-size="13">USART1</text>
    <text x="65" y="98" text-anchor="middle" fill="#b8beb8" font-family="Segoe UI, Arial" font-size="13">shell / logs</text>
  </g>

  <g transform="translate(936 192)">
    <rect width="138" height="120" rx="14" fill="#171c18" stroke="#ffb84d" stroke-opacity="0.68"/>
    <text x="69" y="42" text-anchor="middle" fill="#f4f1e8" font-family="Segoe UI, Arial" font-size="20" font-weight="800">BMP280</text>
    <text x="69" y="72" text-anchor="middle" fill="#ffb84d" font-family="Cascadia Code, Consolas, monospace" font-size="13">I2C1</text>
    <text x="69" y="98" text-anchor="middle" fill="#b8beb8" font-family="Segoe UI, Arial" font-size="13">sensor gate</text>
  </g>

  <circle cx="682" cy="466" r="5" fill="#8a8f89"/>
  <circle cx="682" cy="494" r="5" fill="#ff6b64"/>
  <text x="520" y="458" fill="#8a8f89" font-family="Cascadia Code, Consolas, monospace" font-size="12">GND rail</text>
  <text x="520" y="488" fill="#ff6b64" font-family="Cascadia Code, Consolas, monospace" font-size="12">3V3 rail</text>

  <g transform="translate(730 432)">
    <rect width="234" height="74" rx="12" fill="#171c18" stroke="#f4f1e8" stroke-opacity="0.18"/>
    <text x="18" y="28" fill="#8a8f89" font-family="Cascadia Code, Consolas, monospace" font-size="13">GND: shared ground</text>
    <text x="18" y="54" fill="#ff6b64" font-family="Cascadia Code, Consolas, monospace" font-size="13">3V3: sensor power</text>
  </g>
</svg>
