<svg xmlns="http://www.w3.org/2000/svg" width="1200" height="760" viewBox="0 0 1200 760" role="img" aria-label="Liakia AI embedded workflow technical console preview">
  <defs>
    <linearGradient id="bg" x1="0" y1="0" x2="1" y2="1">
      <stop offset="0" stop-color="#10120f"/>
      <stop offset="0.62" stop-color="#151b16"/>
      <stop offset="1" stop-color="#222016"/>
    </linearGradient>
    <linearGradient id="active" x1="0" y1="0" x2="1" y2="0">
      <stop offset="0" stop-color="#80ff72" stop-opacity="0.2"/>
      <stop offset="1" stop-color="#54d7ff" stop-opacity="0.08"/>
    </linearGradient>
    <filter id="shadow" x="-20%" y="-20%" width="140%" height="140%">
      <feDropShadow dx="0" dy="18" stdDeviation="22" flood-color="#000000" flood-opacity="0.28"/>
    </filter>
    <pattern id="grid" width="42" height="42" patternUnits="userSpaceOnUse">
      <path d="M42 0H0v42" fill="none" stroke="#f4f1e8" stroke-opacity="0.055" stroke-width="1"/>
    </pattern>
    <style>
      .title{font:800 42px "Segoe UI",Arial,sans-serif;fill:#f4f1e8}
      .kicker{font:800 15px "Cascadia Code",Consolas,monospace;fill:#80ff72}
      .muted{font:400 17px "Segoe UI",Arial,sans-serif;fill:#b8beb8}
      .mono{font:400 14px "Cascadia Code",Consolas,monospace;fill:#d7ded2}
      .monoSmall{font:400 12px "Cascadia Code",Consolas,monospace;fill:#b8beb8}
      .green{fill:#80ff72}
      .cyan{fill:#54d7ff}
      .amber{fill:#ffb84d}
      .card{fill:rgba(244,241,232,0.055);stroke:#f4f1e8;stroke-opacity:.16;rx:8}
      .panel{fill:#11140f;stroke:#f4f1e8;stroke-opacity:.16;rx:8;filter:url(#shadow)}
    </style>
  </defs>

  <rect width="1200" height="760" fill="url(#bg)"/>
  <rect width="1200" height="760" fill="url(#grid)"/>
  <rect x="0" y="0" width="1200" height="760" fill="none" stroke="#f4f1e8" stroke-opacity="0.06"/>

  <text x="64" y="72" class="kicker">Liakia / AI EMBEDDED DELIVERY WORKFLOW</text>
  <text x="64" y="128" class="title">Build, flash, test, diagnose, and archive evidence</text>
  <text x="64" y="166" class="muted">build / flash / serial gates / RTCM CRC / USB CDC recovery / register probe / handoff</text>
  <g transform="translate(64 184)">
    <rect width="220" height="34" rx="8" fill="#121611" stroke="#80ff72" stroke-opacity=".34"/>
    <text x="14" y="22" class="monoSmall" fill="#80ff72">Remote HIL: PASS</text>
  </g>
  <g transform="translate(300 184)">
    <rect width="190" height="34" rx="8" fill="#121611" stroke="#54d7ff" stroke-opacity=".34"/>
    <text x="14" y="22" class="monoSmall" fill="#54d7ff">52 RTCM frames</text>
  </g>
  <g transform="translate(506 184)">
    <rect width="230" height="34" rx="8" fill="#121611" stroke="#ffb84d" stroke-opacity=".34"/>
    <text x="14" y="22" class="monoSmall" fill="#ffb84d">CRC BAD: 0</text>
  </g>

  <g transform="translate(64 218)">
    <rect class="card" width="300" height="78"/>
    <text x="22" y="31" class="kicker">01</text>
    <text x="68" y="33" class="muted" fill="#f4f1e8" font-weight="700">Requirement</text>
    <text x="68" y="58" class="monoSmall">scope + risk boundary</text>
  </g>
  <g transform="translate(384 218)">
    <rect class="card" width="300" height="78"/>
    <text x="22" y="31" class="kicker">02</text>
    <text x="68" y="33" class="muted" fill="#f4f1e8" font-weight="700">Code Change</text>
    <text x="68" y="58" class="monoSmall">minimal firmware patch</text>
  </g>
  <g transform="translate(704 218)">
    <rect width="360" height="78" rx="8" fill="url(#active)" stroke="#80ff72" stroke-opacity=".46"/>
    <text x="22" y="31" class="kicker">03</text>
    <text x="68" y="33" class="muted" fill="#f4f1e8" font-weight="700">Build + Flash</text>
    <text x="68" y="58" class="monoSmall">CMake preset + SWD verify</text>
  </g>

  <g transform="translate(64 316)">
    <rect class="card" width="300" height="78"/>
    <text x="22" y="31" class="kicker">04</text>
    <text x="68" y="33" class="muted" fill="#f4f1e8" font-weight="700">Serial Gates</text>
    <text x="68" y="58" class="monoSmall">USB CDC / UART / RS422</text>
  </g>
  <g transform="translate(384 316)">
    <rect class="card" width="300" height="78"/>
    <text x="22" y="31" class="kicker">05</text>
    <text x="68" y="33" class="muted" fill="#f4f1e8" font-weight="700">Protocol Check</text>
    <text x="68" y="58" class="monoSmall">RTCM parser + CRC gate</text>
  </g>
  <g transform="translate(704 316)">
    <rect class="card" width="360" height="78"/>
    <text x="22" y="31" class="kicker">06</text>
    <text x="68" y="33" class="muted" fill="#f4f1e8" font-weight="700">Evidence Package</text>
    <text x="68" y="58" class="monoSmall">manifest + logs + handoff</text>
  </g>

  <g transform="translate(64 430)">
    <rect class="panel" width="1072" height="260"/>
    <rect x="0" y="0" width="1072" height="48" rx="8" fill="#151913" stroke="#f4f1e8" stroke-opacity=".12"/>
    <text x="22" y="30" class="kicker">BASELINE RUNNER / HARDWARE EVIDENCE</text>
    <text x="792" y="30" class="monoSmall">target: STM32F407VET6 / UM982</text>

    <rect x="22" y="68" width="656" height="42" rx="8" fill="#080a08" stroke="#f4f1e8" stroke-opacity=".14"/>
    <text x="42" y="95" class="green mono">$</text>
    <text x="74" y="95" class="monoSmall">run_test_baseline.ps1 -BuildPreset Debug -ComPort COM4 -RtcmPort COM6 -UsbPort COM7 -AllowDangerousShellCommands</text>

    <text x="30" y="138" class="monoSmall" fill="#54d7ff">PASS dependency check</text>
    <text x="30" y="164" class="monoSmall">PASS Debug firmware build</text>
    <text x="30" y="190" class="monoSmall">PASS SWD flash + verify</text>
    <text x="30" y="216" class="monoSmall">PASS functional shell regression</text>
    <text x="30" y="242" class="monoSmall" fill="#80ff72">PASS USB CDC reset recovery</text>

    <rect x="714" y="72" width="140" height="82" rx="8" fill="#121611" stroke="#80ff72" stroke-opacity=".42"/>
    <text x="740" y="103" class="monoSmall">RTCM</text>
    <text x="742" y="132" class="green mono">52 frames</text>
    <rect x="876" y="72" width="120" height="82" rx="8" fill="#121611" stroke="#80ff72" stroke-opacity=".42"/>
    <text x="906" y="103" class="monoSmall">CRC</text>
    <text x="910" y="132" class="green mono">BAD 0</text>
    <rect x="1018" y="72" width="96" height="82" rx="8" fill="#121611" stroke="#80ff72" stroke-opacity=".42"/>
    <text x="1040" y="103" class="monoSmall">SWD</text>
    <text x="1042" y="132" class="green mono">OK</text>

    <text x="714" y="196" class="monoSmall" fill="#80ff72">manifest: evidence-out/baseline/manifest.json</text>
    <text x="714" y="224" class="monoSmall">artifacts: elf / hex / bin + SHA256</text>
    <text x="714" y="252" class="monoSmall">handoff: logs + summaries + review boundary</text>
  </g>
</svg>
